<?xml version="1.0" encoding="UTF-8"?>
<!DOCTYPE svg PUBLIC "-//W3C//DTD SVG 1.1//EN" "http://www.w3.org/Graphics/SVG/1.1/DTD/svg11.dtd">
<svg xmlns="http://www.w3.org/2000/svg" version="1.1" width="722px" height="735px" style="shape-rendering:geometricPrecision; text-rendering:geometricPrecision; image-rendering:optimizeQuality; fill-rule:evenodd; clip-rule:evenodd" xmlns:xlink="http://www.w3.org/1999/xlink">
<g><path style="opacity:1" fill="#000000" d="M -0.5,-0.5 C 240.167,-0.5 480.833,-0.5 721.5,-0.5C 721.5,244.5 721.5,489.5 721.5,734.5C 480.833,734.5 240.167,734.5 -0.5,734.5C -0.5,489.5 -0.5,244.5 -0.5,-0.5 Z"/></g>
<g><path style="opacity:1" fill="#35404c" d="M 466.5,71.5 C 467.764,73.9347 469.597,75.9347 472,77.5C 472.495,79.4727 472.662,81.4727 472.5,83.5C 474.39,83.2965 475.89,83.9632 477,85.5C 484.025,97.216 489.692,109.549 494,122.5C 495.979,138.428 496.812,154.428 496.5,170.5C 508.601,168.945 520.601,169.278 532.5,171.5C 533.209,172.404 534.209,172.737 535.5,172.5C 535.354,174.942 536.187,175.609 538,174.5C 540.333,175.833 542.667,177.167 545,178.5C 545.507,179.996 545.007,181.163 543.5,182C 547.095,182.122 548.761,183.956 548.5,187.5C 547.5,187.5 546.5,187.5 545.5,187.5C 545.281,191.527 546.448,192.194 549,189.5C 549.725,191.158 550.892,191.658 552.5,191C 552.167,190.667 551.833,190.333 551.5,190C 552.5,189.333 553.5,189.333 554.5,190C 556.626,190.898 558.626,192.065 560.5,193.5C 560.833,192.833 561.167,192.167 561.5,191.5C 563.838,193.528 566.171,195.528 568.5,197.5C 564.56,199.359 560.56,200.026 556.5,199.5C 557.305,201.915 558.305,204.249 559.5,206.5C 558.311,207.429 556.978,207.762 555.5,207.5C 555.297,209.39 555.963,210.89 557.5,212C 561.636,212.671 565.636,212.171 569.5,210.5C 571.069,211.714 571.902,213.381 572,215.5C 573.114,211.701 574.447,211.701 576,215.5C 576.333,214.833 576.667,214.167 577,213.5C 578.733,218.403 578.233,223.236 575.5,228C 576.101,229.605 577.101,230.938 578.5,232C 575.485,236.776 574.818,241.943 576.5,247.5C 577.192,246.975 577.692,246.308 578,245.5C 578.417,246.756 579.25,247.423 580.5,247.5C 597.538,247.107 614.538,247.607 631.5,249C 643.005,253.012 651.005,260.512 655.5,271.5C 655.963,274.482 656.296,277.482 656.5,280.5C 655.577,279.697 654.577,279.53 653.5,280C 651.926,281.826 651.093,283.993 651,286.5C 650.667,285.5 650.333,284.5 650,283.5C 648.556,286.105 648.723,288.271 650.5,290C 650.056,291.762 649.556,291.595 649,289.5C 648.833,290.667 648.667,291.833 648.5,293C 649.27,296.2 649.603,299.367 649.5,302.5C 646.634,303.208 643.8,303.875 641,304.5C 640.085,303.672 639.419,302.672 639,301.5C 634.142,303.414 628.975,304.081 623.5,303.5C 623.5,304.833 623.5,306.167 623.5,307.5C 621.833,307.5 620.167,307.5 618.5,307.5C 615.533,307.011 612.867,305.845 610.5,304C 433.5,303.5 256.5,303.333 79.5,303.5C 79.5,304.5 79.5,305.5 79.5,306.5C 77.6096,306.703 76.1096,306.037 75,304.5C 73.7949,305.071 72.6283,305.738 71.5,306.5C 70.8333,308.833 70.1667,311.167 69.5,313.5C 70.09,314.799 71.09,315.632 72.5,316C 70.9371,316.759 69.9371,317.926 69.5,319.5C 51.2618,311.016 43.4284,296.682 46,276.5C 50.6922,259.976 61.5255,250.309 78.5,247.5C 89.1667,247.5 99.8333,247.5 110.5,247.5C 112.116,249.416 111.782,250.916 109.5,252C 110.899,252.595 112.232,252.428 113.5,251.5C 115.565,251.953 117.232,252.953 118.5,254.5C 116.207,255.56 113.541,255.56 110.5,254.5C 109.76,257.845 110.093,261.178 111.5,264.5C 112.991,265.244 114.491,265.91 116,266.5C 118.789,266.588 121.622,266.254 124.5,265.5C 124.5,264.5 124.5,263.5 124.5,262.5C 121.664,262.798 121.164,262.131 123,260.5C 123.333,260.833 123.667,261.167 124,261.5C 126.264,258.744 125.764,256.578 122.5,255C 124.246,254.529 125.913,253.862 127.5,253C 126.5,252.667 125.5,252.333 124.5,252C 126.421,251.64 128.088,250.806 129.5,249.5C 128.757,248.818 128.091,248.151 127.5,247.5C 129.833,247.5 132.167,247.5 134.5,247.5C 134.784,245.585 134.451,243.919 133.5,242.5C 123.789,223.302 120.789,202.969 124.5,181.5C 126.606,177.509 127.939,173.176 128.5,168.5C 139.935,137.398 161.602,117.398 193.5,108.5C 204.678,105.974 216.012,104.974 227.5,105.5C 236.23,106.616 244.896,107.783 253.5,109C 256.22,103.662 258.72,98.1623 261,92.5C 264.143,88.9096 266.643,84.9096 268.5,80.5C 269.852,79.4756 271.185,78.4756 272.5,77.5C 273.458,77.0472 274.292,76.3805 275,75.5C 275.333,76.1667 275.667,76.8333 276,77.5C 277.086,75.202 278.586,73.202 280.5,71.5C 281.251,72.376 281.751,73.376 282,74.5C 282.333,72.5 282.667,70.5 283,68.5C 283.333,69.1667 283.667,69.8333 284,70.5C 286.062,68.0993 287.729,65.4326 289,62.5C 290.726,63.5762 292.559,63.7429 294.5,63C 293.664,61.7567 293.997,60.5901 295.5,59.5C 298.283,58.5371 300.95,57.3704 303.5,56C 302.833,55.6667 302.167,55.3333 301.5,55C 302.833,54.6667 304.167,54.3333 305.5,54C 307.182,49.3199 310.515,46.9866 315.5,47C 316.38,45.6439 316.714,44.1439 316.5,42.5C 319.943,41.9408 322.943,40.6074 325.5,38.5C 348.352,29.2759 372.018,27.1092 396.5,32C 423.668,38.733 447.001,51.8997 466.5,71.5 Z"/></g>
<g><path style="opacity:1" fill="#363e45" d="M 325.5,38.5 C 322.943,40.6074 319.943,41.9408 316.5,42.5C 316.714,44.1439 316.38,45.6439 315.5,47C 310.515,46.9866 307.182,49.3199 305.5,54C 304.167,54.3333 302.833,54.6667 301.5,55C 302.167,55.3333 302.833,55.6667 303.5,56C 300.95,57.3704 298.283,58.5371 295.5,59.5C 293.997,60.5901 293.664,61.7567 294.5,63C 292.559,63.7429 290.726,63.5762 289,62.5C 287.729,65.4326 286.062,68.0993 284,70.5C 283.667,69.8333 283.333,69.1667 283,68.5C 282.667,70.5 282.333,72.5 282,74.5C 281.751,73.376 281.251,72.376 280.5,71.5C 278.586,73.202 277.086,75.202 276,77.5C 275.667,76.8333 275.333,76.1667 275,75.5C 274.292,76.3805 273.458,77.0472 272.5,77.5C 275.846,71.6409 280.18,66.4743 285.5,62C 290.167,58.3333 294.833,54.6667 299.5,51C 307.42,45.198 316.087,41.0313 325.5,38.5 Z"/></g>
<g><path style="opacity:1" fill="#132939" d="M 519.5,75.5 C 518.448,75.3505 517.448,75.5172 516.5,76C 517.833,76.6667 517.833,77.3333 516.5,78C 517.167,78.3333 517.833,78.6667 518.5,79C 515.993,79.0929 513.826,79.9262 512,81.5C 510.05,79.9711 507.883,78.8044 505.5,78C 506.731,76.8173 506.731,75.6507 505.5,74.5C 503.007,73.0362 500.674,73.2029 498.5,75C 498.824,79.8161 500.657,83.9827 504,87.5C 504.991,86.0611 506.324,85.0611 508,84.5C 513.585,85.5508 519.418,86.7175 525.5,88C 527.559,89.1855 527.726,90.3521 526,91.5C 520.214,88.9296 520.047,89.5962 525.5,93.5C 522.792,96.165 523.459,97.4983 527.5,97.5C 526.935,91.968 528.768,90.968 533,94.5C 535.007,93.3313 537.173,92.6646 539.5,92.5C 540.437,88.2697 538.771,85.7697 534.5,85C 533.177,84.1841 532.511,83.0174 532.5,81.5C 554.474,92.7717 569.474,110.105 577.5,133.5C 578.092,139.625 579.258,145.625 581,151.5C 581.499,158.514 581.332,165.514 580.5,172.5C 595.766,170.028 610.099,172.361 623.5,179.5C 626.452,183.282 629.952,186.615 634,189.5C 634.847,191.193 635.68,192.86 636.5,194.5C 635.848,195.449 635.514,196.615 635.5,198C 638.014,206.916 639.514,216.083 640,225.5C 640.671,226.252 641.504,226.586 642.5,226.5C 653.785,228.478 665.452,229.145 677.5,228.5C 688.602,231.013 695.935,237.68 699.5,248.5C 700.922,262.333 695.589,272.333 683.5,278.5C 678.778,278.269 674.111,277.602 669.5,276.5C 666.376,277.419 663.376,277.752 660.5,277.5C 657.871,276.209 656.204,274.209 655.5,271.5C 651.005,260.512 643.005,253.012 631.5,249C 614.538,247.607 597.538,247.107 580.5,247.5C 581.047,235.045 580.214,222.711 578,210.5C 573.315,202.023 568.149,194.023 562.5,186.5C 557.748,183.602 553.081,180.436 548.5,177C 545.489,176.257 542.822,174.924 540.5,173C 537.937,171.921 535.271,171.421 532.5,171.5C 520.601,169.278 508.601,168.945 496.5,170.5C 496.812,154.428 495.979,138.428 494,122.5C 489.692,109.549 484.025,97.216 477,85.5C 475.89,83.9632 474.39,83.2965 472.5,83.5C 472.662,81.4727 472.495,79.4727 472,77.5C 469.597,75.9347 467.764,73.9347 466.5,71.5C 477.486,70.5473 488.486,70.3806 499.5,71C 506.562,71.3362 513.228,72.8362 519.5,75.5 Z"/></g>
<g><path style="opacity:1" fill="#15293d" d="M 519.5,75.5 C 524.022,77.2635 528.355,79.2635 532.5,81.5C 532.511,83.0174 533.177,84.1841 534.5,85C 538.771,85.7697 540.437,88.2697 539.5,92.5C 537.173,92.6646 535.007,93.3313 533,94.5C 528.768,90.968 526.935,91.968 527.5,97.5C 523.459,97.4983 522.792,96.165 525.5,93.5C 520.047,89.5962 520.214,88.9296 526,91.5C 527.726,90.3521 527.559,89.1855 525.5,88C 519.418,86.7175 513.585,85.5508 508,84.5C 506.324,85.0611 504.991,86.0611 504,87.5C 500.657,83.9827 498.824,79.8161 498.5,75C 500.674,73.2029 503.007,73.0362 505.5,74.5C 506.731,75.6507 506.731,76.8173 505.5,78C 507.883,78.8044 510.05,79.9711 512,81.5C 513.826,79.9262 515.993,79.0929 518.5,79C 517.833,78.6667 517.167,78.3333 516.5,78C 517.833,77.3333 517.833,76.6667 516.5,76C 517.448,75.5172 518.448,75.3505 519.5,75.5 Z"/></g>
<g><path style="opacity:1" fill="#22272c" d="M 227.5,105.5 C 216.012,104.974 204.678,105.974 193.5,108.5C 196.906,106.891 200.573,105.724 204.5,105C 212.345,104.178 220.011,104.344 227.5,105.5 Z"/></g>
<g><path style="opacity:1" fill="#13283d" d="M 571.5,135.5 C 572.833,135.5 574.167,135.5 575.5,135.5C 577.55,142.682 578.883,150.015 579.5,157.5C 579.547,160.295 579.047,162.961 578,165.5C 577.027,163.608 576.36,161.608 576,159.5C 575.51,160.793 575.343,162.127 575.5,163.5C 570.627,162.59 568.96,159.757 570.5,155C 570.049,152.431 569.049,150.098 567.5,148C 567.892,146.989 568.559,146.489 569.5,146.5C 567.895,143.42 568.562,140.92 571.5,139C 570.316,137.855 570.316,136.688 571.5,135.5 Z"/></g>
<g><path style="opacity:1" fill="#020810" d="M 577.5,133.5 C 578.604,134.997 579.604,136.664 580.5,138.5C 582.056,145.593 583.223,152.593 584,159.5C 584.925,160.047 585.758,160.713 586.5,161.5C 583.67,163.658 583.003,166.324 584.5,169.5C 586.005,166.869 586.671,167.203 586.5,170.5C 595.22,170.996 603.887,170.996 612.5,170.5C 616.372,171.871 619.539,174.205 622,177.5C 622.333,177.167 622.667,176.833 623,176.5C 623.483,177.448 623.649,178.448 623.5,179.5C 610.099,172.361 595.766,170.028 580.5,172.5C 581.332,165.514 581.499,158.514 581,151.5C 579.258,145.625 578.092,139.625 577.5,133.5 Z"/></g>
<g><path style="opacity:1" fill="#1e212b" d="M 128.5,168.5 C 127.939,173.176 126.606,177.509 124.5,181.5C 124.654,176.711 125.987,172.378 128.5,168.5 Z"/></g>
<g><path style="opacity:1" fill="#30404e" d="M 532.5,171.5 C 535.271,171.421 537.937,171.921 540.5,173C 542.822,174.924 545.489,176.257 548.5,177C 553.081,180.436 557.748,183.602 562.5,186.5C 568.149,194.023 573.315,202.023 578,210.5C 580.214,222.711 581.047,235.045 580.5,247.5C 579.25,247.423 578.417,246.756 578,245.5C 577.692,246.308 577.192,246.975 576.5,247.5C 574.818,241.943 575.485,236.776 578.5,232C 577.101,230.938 576.101,229.605 575.5,228C 578.233,223.236 578.733,218.403 577,213.5C 576.667,214.167 576.333,214.833 576,215.5C 574.447,211.701 573.114,211.701 572,215.5C 571.902,213.381 571.069,211.714 569.5,210.5C 565.636,212.171 561.636,212.671 557.5,212C 555.963,210.89 555.297,209.39 555.5,207.5C 556.978,207.762 558.311,207.429 559.5,206.5C 558.305,204.249 557.305,201.915 556.5,199.5C 560.56,200.026 564.56,199.359 568.5,197.5C 566.171,195.528 563.838,193.528 561.5,191.5C 561.167,192.167 560.833,192.833 560.5,193.5C 558.626,192.065 556.626,190.898 554.5,190C 553.5,189.333 552.5,189.333 551.5,190C 551.833,190.333 552.167,190.667 552.5,191C 550.892,191.658 549.725,191.158 549,189.5C 546.448,192.194 545.281,191.527 545.5,187.5C 546.5,187.5 547.5,187.5 548.5,187.5C 548.761,183.956 547.095,182.122 543.5,182C 545.007,181.163 545.507,179.996 545,178.5C 542.667,177.167 540.333,175.833 538,174.5C 536.187,175.609 535.354,174.942 535.5,172.5C 534.209,172.737 533.209,172.404 532.5,171.5 Z"/></g>
<g><path style="opacity:1" fill="#172732" d="M 636.5,194.5 C 642.559,203.846 644.559,214.179 642.5,225.5C 642.5,225.833 642.5,226.167 642.5,226.5C 641.504,226.586 640.671,226.252 640,225.5C 639.514,216.083 638.014,206.916 635.5,198C 635.514,196.615 635.848,195.449 636.5,194.5 Z"/></g>
<g><path style="opacity:1" fill="#0b141e" d="M 642.5,225.5 C 643.473,225.987 644.473,226.487 645.5,227C 656.341,227.17 667.008,227.67 677.5,228.5C 665.452,229.145 653.785,228.478 642.5,226.5C 642.5,226.167 642.5,225.833 642.5,225.5 Z"/></g>
<g><path style="opacity:1" fill="#10141c" d="M 133.5,242.5 C 134.451,243.919 134.784,245.585 134.5,247.5C 132.167,247.5 129.833,247.5 127.5,247.5C 121.833,247.5 116.167,247.5 110.5,247.5C 99.8333,247.5 89.1667,247.5 78.5,247.5C 96.6591,246.503 114.992,246.17 133.5,246.5C 133.5,245.167 133.5,243.833 133.5,242.5 Z"/></g>
<g><path style="opacity:1" fill="#373e4d" d="M 110.5,247.5 C 116.167,247.5 121.833,247.5 127.5,247.5C 128.091,248.151 128.757,248.818 129.5,249.5C 128.088,250.806 126.421,251.64 124.5,252C 125.5,252.333 126.5,252.667 127.5,253C 125.913,253.862 124.246,254.529 122.5,255C 125.764,256.578 126.264,258.744 124,261.5C 123.667,261.167 123.333,260.833 123,260.5C 121.164,262.131 121.664,262.798 124.5,262.5C 124.5,263.5 124.5,264.5 124.5,265.5C 121.622,266.254 118.789,266.588 116,266.5C 114.491,265.91 112.991,265.244 111.5,264.5C 110.093,261.178 109.76,257.845 110.5,254.5C 113.541,255.56 116.207,255.56 118.5,254.5C 117.232,252.953 115.565,251.953 113.5,251.5C 112.232,252.428 110.899,252.595 109.5,252C 111.782,250.916 112.116,249.416 110.5,247.5 Z"/></g>
<g><path style="opacity:1" fill="#050a10" d="M 699.5,248.5 C 701.114,252.848 701.781,257.348 701.5,262C 699.535,264.36 698.702,266.86 699,269.5C 697.282,270.85 695.448,272.017 693.5,273C 693.833,273.333 694.167,273.667 694.5,274C 693.299,274.903 692.465,276.069 692,277.5C 691,278.833 690,278.833 689,277.5C 688.626,278.416 688.126,279.25 687.5,280C 685.122,280.511 682.788,281.178 680.5,282C 682.595,282.556 682.762,283.056 681,283.5C 673.43,282.022 665.93,282.189 658.5,284C 658.057,288.41 657.057,292.577 655.5,296.5C 656.254,291.537 656.587,286.537 656.5,281.5C 664.174,281.666 671.841,281.5 679.5,281C 681.066,280.392 682.4,279.558 683.5,278.5C 695.589,272.333 700.922,262.333 699.5,248.5 Z"/></g>
<g><path style="opacity:1" fill="#192932" d="M 655.5,271.5 C 656.204,274.209 657.871,276.209 660.5,277.5C 663.376,277.752 666.376,277.419 669.5,276.5C 674.111,277.602 678.778,278.269 683.5,278.5C 682.4,279.558 681.066,280.392 679.5,281C 671.841,281.5 664.174,281.666 656.5,281.5C 656.5,281.167 656.5,280.833 656.5,280.5C 656.296,277.482 655.963,274.482 655.5,271.5 Z"/></g>
<g><path style="opacity:1" fill="#30414e" d="M 618.5,307.5 C 618.611,308.117 618.944,308.617 619.5,309C 624.898,310.664 630.232,312.331 635.5,314C 631.437,315.712 627.27,315.879 623,314.5C 620.363,314.657 617.863,315.323 615.5,316.5C 612.897,315.438 610.23,315.272 607.5,316C 609.577,316.192 611.577,316.692 613.5,317.5C 443.499,318.8 273.499,318.8 103.5,317.5C 95.5,317.667 87.5,317.833 79.5,318C 78.944,318.383 78.6107,318.883 78.5,319.5C 77.1667,319.5 75.8333,319.5 74.5,319.5C 73.1667,319.5 71.8333,319.5 70.5,319.5C 70.1667,319.5 69.8333,319.5 69.5,319.5C 69.9371,317.926 70.9371,316.759 72.5,316C 71.09,315.632 70.09,314.799 69.5,313.5C 70.1667,311.167 70.8333,308.833 71.5,306.5C 72.6283,305.738 73.7949,305.071 75,304.5C 76.1096,306.037 77.6096,306.703 79.5,306.5C 79.5,305.5 79.5,304.5 79.5,303.5C 256.5,303.333 433.5,303.5 610.5,304C 612.867,305.845 615.533,307.011 618.5,307.5 Z"/></g>
<g><path style="opacity:1" fill="#33434b" d="M 656.5,280.5 C 656.5,280.833 656.5,281.167 656.5,281.5C 656.587,286.537 656.254,291.537 655.5,296.5C 649.853,309.999 639.853,318.332 625.5,321.5C 443.503,319.501 261.17,318.835 78.5,319.5C 78.6107,318.883 78.944,318.383 79.5,318C 87.5,317.833 95.5,317.667 103.5,317.5C 273.499,318.8 443.499,318.8 613.5,317.5C 611.577,316.692 609.577,316.192 607.5,316C 610.23,315.272 612.897,315.438 615.5,316.5C 617.863,315.323 620.363,314.657 623,314.5C 627.27,315.879 631.437,315.712 635.5,314C 630.232,312.331 624.898,310.664 619.5,309C 618.944,308.617 618.611,308.117 618.5,307.5C 620.167,307.5 621.833,307.5 623.5,307.5C 623.5,306.167 623.5,304.833 623.5,303.5C 628.975,304.081 634.142,303.414 639,301.5C 639.419,302.672 640.085,303.672 641,304.5C 643.8,303.875 646.634,303.208 649.5,302.5C 649.603,299.367 649.27,296.2 648.5,293C 648.667,291.833 648.833,290.667 649,289.5C 649.556,291.595 650.056,291.762 650.5,290C 648.723,288.271 648.556,286.105 650,283.5C 650.333,284.5 650.667,285.5 651,286.5C 651.093,283.993 651.926,281.826 653.5,280C 654.577,279.53 655.577,279.697 656.5,280.5 Z"/></g>
<g><path style="opacity:1" fill="#3b4850" d="M 74.5,319.5 C 75.8333,319.5 77.1667,319.5 78.5,319.5C 261.17,318.835 443.503,319.501 625.5,321.5C 622.167,321.5 618.833,321.5 615.5,321.5C 435.167,320.833 254.833,320.167 74.5,319.5 Z"/></g>
<g><path style="opacity:1" fill="#374248" d="M 70.5,319.5 C 71.8333,319.5 73.1667,319.5 74.5,319.5C 254.833,320.167 435.167,320.833 615.5,321.5C 435.167,321.5 254.833,321.5 74.5,321.5C 73.0048,321.011 71.6715,320.345 70.5,319.5 Z"/></g>
<g><path style="opacity:1" fill="#090f14" d="M 74.5,321.5 C 254.833,321.5 435.167,321.5 615.5,321.5C 618.833,321.5 622.167,321.5 625.5,321.5C 624.878,322.627 624.045,323.627 623,324.5C 538.565,323.845 453.898,323.512 369,323.5C 287.167,323.667 205.333,323.833 123.5,324C 122.271,324.781 120.938,325.281 119.5,325.5C 112.282,324.885 105.115,324.218 98,323.5C 91.9493,324.23 85.9493,324.23 80,323.5C 78.2894,323.439 76.956,324.106 76,325.5C 75.5899,324.099 75.0899,322.766 74.5,321.5 Z"/></g>
<g><path style="opacity:1" fill="#022028" d="M 180.5,353.5 C 175.469,352.845 171.135,354.179 167.5,357.5C 167.532,355.433 168.532,354.1 170.5,353.5C 173.988,352.295 177.322,352.295 180.5,353.5 Z"/></g>
<g><path style="opacity:1" fill="#117074" d="M 180.5,353.5 C 180.5,353.833 180.5,354.167 180.5,354.5C 178.265,354.205 176.265,354.539 174.5,355.5C 171.632,356.353 168.965,357.686 166.5,359.5C 166.328,358.508 166.662,357.842 167.5,357.5C 171.135,354.179 175.469,352.845 180.5,353.5 Z"/></g>
<g><path style="opacity:1" fill="#044344" d="M 183.5,355.5 C 185.5,355.5 186.5,356.5 186.5,358.5C 185.167,357.833 184.167,356.833 183.5,355.5 Z"/></g>
<g><path style="opacity:1" fill="#26b4b0" d="M 174.5,355.5 C 176.265,354.539 178.265,354.205 180.5,354.5C 181.391,355.11 182.391,355.443 183.5,355.5C 184.167,356.833 185.167,357.833 186.5,358.5C 186.833,359.167 187.167,359.833 187.5,360.5C 185.139,359.565 182.972,358.232 181,356.5C 180.617,357.056 180.117,357.389 179.5,357.5C 178.22,356.069 176.553,355.402 174.5,355.5 Z"/></g>
<g><path style="opacity:1" fill="#16676f" d="M 551.5,358.5 C 547.167,357.167 542.833,357.167 538.5,358.5C 540.307,356.555 542.64,355.555 545.5,355.5C 548.102,355.467 550.102,356.467 551.5,358.5 Z"/></g>
<g><path style="opacity:1" fill="#003c3d" d="M 186.5,358.5 C 188.027,358.427 189.027,359.094 189.5,360.5C 189.5,360.833 189.5,361.167 189.5,361.5C 188.833,361.167 188.167,360.833 187.5,360.5C 187.167,359.833 186.833,359.167 186.5,358.5 Z"/></g>
<g><path style="opacity:1" fill="#0a4c4f" d="M 468.5,358.5 C 470.288,357.378 472.288,357.211 474.5,358C 475.252,358.671 475.586,359.504 475.5,360.5C 473.521,358.832 471.188,358.166 468.5,358.5 Z"/></g>
<g><path style="opacity:1" fill="#003933" d="M 536.5,359.5 C 536.5,359.833 536.5,360.167 536.5,360.5C 534.39,361.453 533.223,363.119 533,365.5C 532.5,392.831 532.333,420.165 532.5,447.5C 531.17,418.997 531.17,390.331 532.5,361.5C 533.622,360.37 534.956,359.703 536.5,359.5 Z"/></g>
<g><path style="opacity:1" fill="#01565a" d="M 553.5,359.5 C 554.167,359.5 554.833,359.5 555.5,359.5C 556.11,360.391 556.443,361.391 556.5,362.5C 555.167,361.833 554.167,360.833 553.5,359.5 Z"/></g>
<g><path style="opacity:1" fill="#176662" d="M 595.5,365.5 C 601.113,364.079 603.28,366.079 602,371.5C 596.322,373.662 594.156,371.662 595.5,365.5 Z"/></g>
<g><path style="opacity:1" fill="#02e2ea" d="M 179.5,357.5 C 184.213,360.949 186.88,365.616 187.5,371.5C 185.634,372.014 183.8,372.68 182,373.5C 180.416,373.012 179.249,372.012 178.5,370.5C 178.167,371.333 177.833,372.167 177.5,373C 178.123,376.481 178.623,379.981 179,383.5C 179.49,382.207 179.657,380.873 179.5,379.5C 180.5,379.5 181.5,379.5 182.5,379.5C 183.17,385.802 182.67,392.135 181,398.5C 180.703,395.086 180.036,391.753 179,388.5C 177.951,393.6 177.451,398.767 177.5,404C 178.544,413.177 178.544,422.344 177.5,431.5C 177.511,436.92 178.178,442.254 179.5,447.5C 180.653,437.339 180.653,427.173 179.5,417C 179.94,411.162 180.44,405.328 181,399.5C 181.333,402.167 181.667,404.833 182,407.5C 182.3,431.501 182.133,455.501 181.5,479.5C 180.167,479.5 178.833,479.5 177.5,479.5C 177.708,483.879 177.375,488.213 176.5,492.5C 178.049,494.902 178.716,497.568 178.5,500.5C 172.9,499.982 169.4,496.982 168,491.5C 167.5,450.168 167.333,408.835 167.5,367.5C 167.201,365.396 167.534,363.396 168.5,361.5C 170.535,360.959 172.535,360.292 174.5,359.5C 174.291,358.914 173.957,358.414 173.5,358C 175.473,357.505 177.473,357.338 179.5,357.5 Z"/></g>
<g><path style="opacity:1" fill="#08dee4" d="M 556.5,366.5 C 557.498,393.328 557.831,420.328 557.5,447.5C 557.167,447.5 556.833,447.5 556.5,447.5C 554.894,448.8 553.227,450.134 551.5,451.5C 550.614,452.325 550.281,453.325 550.5,454.5C 547.272,455.414 543.939,455.747 540.5,455.5C 539.609,454.89 538.609,454.557 537.5,454.5C 537.5,454.167 537.5,453.833 537.5,453.5C 536.044,451.716 535.044,449.716 534.5,447.5C 534.318,424.992 534.652,402.492 535.5,380C 535.443,372.924 536.61,366.091 539,359.5C 539.333,360.167 539.667,360.833 540,361.5C 540.839,360.376 542.006,359.709 543.5,359.5C 546.172,360.503 548.838,361.503 551.5,362.5C 552.086,362.291 552.586,361.957 553,361.5C 554.189,363.233 555.356,364.9 556.5,366.5 Z"/></g>
<g><path style="opacity:1" fill="#01151f" d="M 555.5,359.5 C 556.75,359.577 557.583,360.244 558,361.5C 558.333,361.167 558.667,360.833 559,360.5C 559.83,389.67 559.664,418.67 558.5,447.5C 558.667,419.831 558.5,392.165 558,364.5C 557.722,363.584 557.222,362.918 556.5,362.5C 556.443,361.391 556.11,360.391 555.5,359.5 Z"/></g>
<g><path style="opacity:1" fill="#04343b" d="M 418.5,370.5 C 423.833,368.5 425.5,370.167 423.5,375.5C 423.768,373.901 423.434,372.568 422.5,371.5C 421.292,370.766 419.959,370.433 418.5,370.5 Z"/></g>
<g><path style="opacity:1" fill="#3dcabd" d="M 596.5,366.5 C 600.138,365.737 601.638,367.07 601,370.5C 597.331,372.009 595.831,370.676 596.5,366.5 Z"/></g>
<g><path style="opacity:1" fill="#1b3d40" d="M 324.5,367.5 C 324.5,367.833 324.5,368.167 324.5,368.5C 323.209,368.263 322.209,368.596 321.5,369.5C 319.896,370.287 319.229,371.62 319.5,373.5C 318.596,372.791 318.263,371.791 318.5,370.5C 319.687,368.025 321.687,367.025 324.5,367.5 Z"/></g>
<g><path style="opacity:1" fill="#2a817c" d="M 321.5,369.5 C 322.209,368.596 323.209,368.263 324.5,368.5C 326.597,369.879 326.93,371.545 325.5,373.5C 325.833,370.5 324.5,369.167 321.5,369.5 Z"/></g>
<g><path style="opacity:1" fill="#06dfdf" d="M 167.5,367.5 C 167.333,408.835 167.5,450.168 168,491.5C 169.4,496.982 172.9,499.982 178.5,500.5C 178.716,497.568 178.049,494.902 176.5,492.5C 177.375,488.213 177.708,483.879 177.5,479.5C 178.833,479.5 180.167,479.5 181.5,479.5C 182.133,455.501 182.3,431.501 182,407.5C 181.667,404.833 181.333,402.167 181,399.5C 180.44,405.328 179.94,411.162 179.5,417C 180.653,427.173 180.653,437.339 179.5,447.5C 178.178,442.254 177.511,436.92 177.5,431.5C 178.544,422.344 178.544,413.177 177.5,404C 177.451,398.767 177.951,393.6 179,388.5C 180.036,391.753 180.703,395.086 181,398.5C 182.67,392.135 183.17,385.802 182.5,379.5C 181.5,379.5 180.5,379.5 179.5,379.5C 179.657,380.873 179.49,382.207 179,383.5C 178.623,379.981 178.123,376.481 177.5,373C 177.833,372.167 178.167,371.333 178.5,370.5C 179.249,372.012 180.416,373.012 182,373.5C 183.8,372.68 185.634,372.014 187.5,371.5C 187.5,412.833 187.5,454.167 187.5,495.5C 187.5,496.5 187.5,497.5 187.5,498.5C 186.128,499.512 184.795,500.512 183.5,501.5C 180.998,501.749 178.498,502.083 176,502.5C 173.558,502.518 171.392,501.851 169.5,500.5C 168.5,500.167 167.833,499.5 167.5,498.5C 166.18,454.694 166.18,411.027 167.5,367.5 Z"/></g>
<g><path style="opacity:1" fill="#07191c" d="M 318.5,370.5 C 318.263,371.791 318.596,372.791 319.5,373.5C 321.611,374.742 323.611,374.742 325.5,373.5C 326.93,371.545 326.597,369.879 324.5,368.5C 324.5,368.167 324.5,367.833 324.5,367.5C 326.226,367.185 327.893,367.019 329.5,367C 327.821,369.565 327.154,372.398 327.5,375.5C 323.819,376.835 320.485,376.835 317.5,375.5C 316.753,373.711 317.086,372.044 318.5,370.5 Z"/></g>
<g><path style="opacity:1" fill="#31ceb8" d="M 321.5,369.5 C 324.5,369.167 325.833,370.5 325.5,373.5C 324.167,373.5 322.833,373.5 321.5,373.5C 321.5,372.167 321.5,370.833 321.5,369.5 Z"/></g>
<g><path style="opacity:1" fill="#2dc0b5" d="M 418.5,370.5 C 419.959,370.433 421.292,370.766 422.5,371.5C 423.167,375.5 421.5,377.167 417.5,376.5C 417.5,376.167 417.5,375.833 417.5,375.5C 417.366,373.708 417.699,372.042 418.5,370.5 Z"/></g>
<g><path style="opacity:1" fill="#258c84" d="M 321.5,369.5 C 321.5,370.833 321.5,372.167 321.5,373.5C 322.833,373.5 324.167,373.5 325.5,373.5C 323.611,374.742 321.611,374.742 319.5,373.5C 319.229,371.62 319.896,370.287 321.5,369.5 Z"/></g>
<g><path style="opacity:1" fill="#1c5e6a" d="M 418.5,370.5 C 417.699,372.042 417.366,373.708 417.5,375.5C 416.861,374.903 416.528,374.07 416.5,373C 416.684,371.624 417.351,370.791 418.5,370.5 Z"/></g>
<g><path style="opacity:1" fill="#125b57" d="M 422.5,371.5 C 423.434,372.568 423.768,373.901 423.5,375.5C 422.866,376.947 421.699,377.613 420,377.5C 418.93,377.472 418.097,377.139 417.5,376.5C 421.5,377.167 423.167,375.5 422.5,371.5 Z"/></g>
<g><path style="opacity:1" fill="#065459" d="M 556.5,362.5 C 557.222,362.918 557.722,363.584 558,364.5C 558.5,392.165 558.667,419.831 558.5,447.5C 558.167,447.5 557.833,447.5 557.5,447.5C 557.831,420.328 557.498,393.328 556.5,366.5C 556.5,365.167 556.5,363.833 556.5,362.5 Z"/></g>
<g><path style="opacity:1" fill="#0d4044" d="M 255.5,383.5 C 252.687,383.025 250.687,384.025 249.5,386.5C 249.167,386.5 248.833,386.5 248.5,386.5C 249.689,382.67 252.022,381.67 255.5,383.5 Z"/></g>
<g><path style="opacity:1" fill="#01060d" d="M 258.5,474.5 C 258.5,444.5 258.5,414.5 258.5,384.5C 259.386,383.224 260.386,383.224 261.5,384.5C 263.401,388.21 264.568,391.877 265,395.5C 265.212,414.016 265.712,432.516 266.5,451C 266.546,452.728 266.046,454.228 265,455.5C 264.503,452.854 264.336,450.187 264.5,447.5C 263.5,447.5 262.5,447.5 261.5,447.5C 261.985,429.68 261.485,412.013 260,394.5C 259.832,421.336 259.332,448.003 258.5,474.5 Z"/></g>
<g><path style="opacity:1" fill="#16827f" d="M 536.5,360.5 C 535.489,362.372 534.655,364.372 534,366.5C 533.17,393.67 533.336,420.67 534.5,447.5C 535.044,449.716 536.044,451.716 537.5,453.5C 534.447,452.72 532.78,450.72 532.5,447.5C 532.333,420.165 532.5,392.831 533,365.5C 533.223,363.119 534.39,361.453 536.5,360.5 Z"/></g>
<g><path style="opacity:1" fill="#1cbdc1" d="M 468.5,358.5 C 471.188,358.166 473.521,358.832 475.5,360.5C 475.5,379.833 475.5,399.167 475.5,418.5C 475.167,418.5 474.833,418.5 474.5,418.5C 473.992,399.169 473.492,379.836 473,360.5C 471.887,361.711 470.72,361.711 469.5,360.5C 469.167,361.167 468.833,361.833 468.5,362.5C 468.724,381.132 468.724,399.798 468.5,418.5C 470.167,418.5 471.833,418.5 473.5,418.5C 471.735,419.461 469.735,419.795 467.5,419.5C 467.5,418.833 467.5,418.167 467.5,417.5C 467.179,397.757 467.513,378.091 468.5,358.5 Z"/></g>
<g><path style="opacity:1" fill="#106a71" d="M 468.5,358.5 C 467.513,378.091 467.179,397.757 467.5,417.5C 466.834,407.839 466.5,398.006 466.5,388C 466.501,377.81 467.168,367.977 468.5,358.5 Z"/></g>
<g><path style="opacity:1" fill="#25cccc" d="M 551.5,358.5 C 552.492,358.328 553.158,358.662 553.5,359.5C 554.167,360.833 555.167,361.833 556.5,362.5C 556.5,363.833 556.5,365.167 556.5,366.5C 555.356,364.9 554.189,363.233 553,361.5C 552.586,361.957 552.086,362.291 551.5,362.5C 548.838,361.503 546.172,360.503 543.5,359.5C 542.006,359.709 540.839,360.376 540,361.5C 539.667,360.833 539.333,360.167 539,359.5C 536.61,366.091 535.443,372.924 535.5,380C 534.652,402.492 534.318,424.992 534.5,447.5C 533.336,420.67 533.17,393.67 534,366.5C 534.655,364.372 535.489,362.372 536.5,360.5C 536.5,360.167 536.5,359.833 536.5,359.5C 537.167,359.167 537.833,358.833 538.5,358.5C 542.833,357.167 547.167,357.167 551.5,358.5 Z"/></g>
<g><path style="opacity:1" fill="#23766d" d="M 653.5,396.5 C 650.5,396.167 649.167,397.5 649.5,400.5C 648.596,399.791 648.263,398.791 648.5,397.5C 649.879,395.403 651.545,395.07 653.5,396.5 Z"/></g>
<g><path style="opacity:1" fill="#00272a" d="M 248.5,386.5 C 248.183,416.211 248.516,445.877 249.5,475.5C 248.883,475.389 248.383,475.056 248,474.5C 247.17,444.997 247.336,415.664 248.5,386.5 Z"/></g>
<g><path style="opacity:1" fill="#055054" d="M 255.5,383.5 C 256.609,383.557 257.609,383.89 258.5,384.5C 258.5,414.5 258.5,444.5 258.5,474.5C 258.167,474.5 257.833,474.5 257.5,474.5C 257.667,444.831 257.5,415.165 257,385.5C 256.283,384.956 255.783,384.289 255.5,383.5 Z"/></g>
<g><path style="opacity:1" fill="#43c9bb" d="M 653.5,396.5 C 655.284,399.808 654.284,401.475 650.5,401.5C 649.833,401.5 649.5,401.167 649.5,400.5C 649.167,397.5 650.5,396.167 653.5,396.5 Z"/></g>
<g><path style="opacity:1" fill="#116767" d="M 653.5,396.5 C 654.649,396.791 655.316,397.624 655.5,399C 655.613,400.699 654.947,401.866 653.5,402.5C 652.209,402.737 651.209,402.404 650.5,401.5C 654.284,401.475 655.284,399.808 653.5,396.5 Z"/></g>
<g><path style="opacity:1" fill="#066e6e" d="M 248.5,386.5 C 248.833,386.5 249.167,386.5 249.5,386.5C 249.169,415.338 249.502,444.005 250.5,472.5C 250.5,473.5 250.5,474.5 250.5,475.5C 250.167,475.5 249.833,475.5 249.5,475.5C 248.516,445.877 248.183,416.211 248.5,386.5 Z"/></g>
<g><path style="opacity:1" fill="#108c8b" d="M 187.5,360.5 C 188.167,360.833 188.833,361.167 189.5,361.5C 189.5,406.167 189.5,450.833 189.5,495.5C 189.5,495.833 189.5,496.167 189.5,496.5C 188.662,496.842 188.328,497.508 188.5,498.5C 188.167,498.5 187.833,498.5 187.5,498.5C 187.5,497.5 187.5,496.5 187.5,495.5C 188.825,450.627 188.825,405.627 187.5,360.5 Z"/></g>
<g><path style="opacity:1" fill="#032f35" d="M 648.5,397.5 C 648.263,398.791 648.596,399.791 649.5,400.5C 649.5,401.167 649.833,401.5 650.5,401.5C 651.209,402.404 652.209,402.737 653.5,402.5C 651.983,403.735 650.316,403.735 648.5,402.5C 647.212,400.701 647.212,399.035 648.5,397.5 Z"/></g>
<g><path style="opacity:1" fill="#1cb5b5" d="M 255.5,383.5 C 255.783,384.289 256.283,384.956 257,385.5C 257.5,415.165 257.667,444.831 257.5,474.5C 257.5,474.833 257.5,475.167 257.5,475.5C 257.167,475.5 256.833,475.5 256.5,475.5C 256.5,466.167 256.5,456.833 256.5,447.5C 256.5,428.5 256.5,409.5 256.5,390.5C 257.107,386.097 255.44,384.764 251.5,386.5C 250.571,387.689 250.238,389.022 250.5,390.5C 250.5,416.5 250.5,442.5 250.5,468.5C 250.5,469.833 250.5,471.167 250.5,472.5C 249.502,444.005 249.169,415.338 249.5,386.5C 250.687,384.025 252.687,383.025 255.5,383.5 Z"/></g>
<g><path style="opacity:1" fill="#0fdae6" d="M 255.5,390.5 C 255.833,390.5 256.167,390.5 256.5,390.5C 256.5,409.5 256.5,428.5 256.5,447.5C 256.144,453.077 255.144,458.41 253.5,463.5C 251.632,462.214 251.466,460.881 253,459.5C 253.333,439.167 253.667,418.833 254,398.5C 254.333,398.833 254.667,399.167 255,399.5C 255.498,396.518 255.665,393.518 255.5,390.5 Z"/></g>
<g><path style="opacity:1" fill="#0be0e7" d="M 250.5,390.5 C 252.167,390.5 253.833,390.5 255.5,390.5C 255.665,393.518 255.498,396.518 255,399.5C 254.667,399.167 254.333,398.833 254,398.5C 253.667,418.833 253.333,439.167 253,459.5C 251.466,460.881 251.632,462.214 253.5,463.5C 254.084,466.285 253.084,467.952 250.5,468.5C 250.5,442.5 250.5,416.5 250.5,390.5 Z"/></g>
<g><path style="opacity:1" fill="#18ddd5" d="M 256.5,390.5 C 256.167,390.5 255.833,390.5 255.5,390.5C 253.833,390.5 252.167,390.5 250.5,390.5C 250.238,389.022 250.571,387.689 251.5,386.5C 255.44,384.764 257.107,386.097 256.5,390.5 Z"/></g>
<g><path style="opacity:1" fill="#0ed8dd" d="M 474.5,418.5 C 474.167,418.5 473.833,418.5 473.5,418.5C 471.833,418.5 470.167,418.5 468.5,418.5C 468.724,399.798 468.724,381.132 468.5,362.5C 468.833,361.833 469.167,361.167 469.5,360.5C 470.72,361.711 471.887,361.711 473,360.5C 473.492,379.836 473.992,399.169 474.5,418.5 Z"/></g>
<g><path style="opacity:1" fill="#18d0cf" d="M 187.5,360.5 C 188.825,405.627 188.825,450.627 187.5,495.5C 187.5,454.167 187.5,412.833 187.5,371.5C 186.88,365.616 184.213,360.949 179.5,357.5C 180.117,357.389 180.617,357.056 181,356.5C 182.972,358.232 185.139,359.565 187.5,360.5 Z"/></g>
<g><path style="opacity:1" fill="#053c3f" d="M 473.5,418.5 C 473.833,418.5 474.167,418.5 474.5,418.5C 474.833,418.5 475.167,418.5 475.5,418.5C 473.141,421.976 470.474,422.309 467.5,419.5C 469.735,419.795 471.735,419.461 473.5,418.5 Z"/></g>
<g><path style="opacity:1" fill="#04020c" d="M 372.5,463.5 C 373.156,441.474 372.489,419.808 370.5,398.5C 368.282,396.156 365.615,395.823 362.5,397.5C 360.506,437.153 359.839,477.153 360.5,517.5C 358.226,508.723 357.893,499.723 359.5,490.5C 358.942,485.486 358.275,480.486 357.5,475.5C 358.499,460.852 359.166,446.185 359.5,431.5C 359.644,423.075 358.978,414.742 357.5,406.5C 358.382,403.209 359.048,399.876 359.5,396.5C 361.103,396.688 362.437,396.188 363.5,395C 362.833,394.667 362.167,394.333 361.5,394C 364.827,393.39 368.161,392.89 371.5,392.5C 371.231,394.429 371.731,396.095 373,397.5C 373.83,419.671 373.663,441.671 372.5,463.5 Z"/></g>
<g><path style="opacity:1" fill="#023b45" d="M 370.5,398.5 C 370.167,398.5 369.833,398.5 369.5,398.5C 367.03,397.122 364.696,397.455 362.5,399.5C 362.5,398.833 362.5,398.167 362.5,397.5C 365.615,395.823 368.282,396.156 370.5,398.5 Z"/></g>
<g><path style="opacity:1" fill="#001f2d" d="M 370.5,399.5 C 370.5,399.167 370.5,398.833 370.5,398.5C 372.489,419.808 373.156,441.474 372.5,463.5C 372.83,481.674 372.497,499.674 371.5,517.5C 371.832,477.996 371.499,438.663 370.5,399.5 Z"/></g>
<g><path style="opacity:1" fill="#041015" d="M 109.5,432.5 C 108.28,434.284 108.28,435.95 109.5,437.5C 110.607,439.847 112.274,440.18 114.5,438.5C 115.742,436.611 115.742,434.611 114.5,432.5C 118.711,433.259 120.044,435.593 118.5,439.5C 116.5,440.5 114.5,441.5 112.5,442.5C 110.189,441.786 108.022,440.786 106,439.5C 104.687,435.795 105.854,433.462 109.5,432.5 Z"/></g>
<g><path style="opacity:1" fill="#196661" d="M 109.5,432.5 C 111.167,432.5 112.833,432.5 114.5,432.5C 115.742,434.611 115.742,436.611 114.5,438.5C 115.169,434.324 113.669,432.991 110,434.5C 109.517,435.448 109.351,436.448 109.5,437.5C 108.28,435.95 108.28,434.284 109.5,432.5 Z"/></g>
<g><path style="opacity:1" fill="#3bc3b7" d="M 114.5,438.5 C 112.274,440.18 110.607,439.847 109.5,437.5C 109.351,436.448 109.517,435.448 110,434.5C 113.669,432.991 115.169,434.324 114.5,438.5 Z"/></g>
<g><path style="opacity:1" fill="#085e66" d="M 312.5,439.5 C 316.182,439.335 319.848,439.501 323.5,440C 324.056,440.383 324.389,440.883 324.5,441.5C 320.699,440.285 317.033,440.285 313.5,441.5C 312.833,441.5 312.167,441.5 311.5,441.5C 311.833,440.833 312.167,440.167 312.5,439.5 Z"/></g>
<g><path style="opacity:1" fill="#1cbabe" d="M 369.5,398.5 C 369.833,398.5 370.167,398.5 370.5,398.5C 370.5,398.833 370.5,399.167 370.5,399.5C 370.833,439.172 370.5,478.839 369.5,518.5C 367.031,520.007 364.865,519.673 363,517.5C 362.5,478.168 362.333,438.835 362.5,399.5C 364.696,397.455 367.03,397.122 369.5,398.5 Z"/></g>
<g><path style="opacity:1" fill="#061b1f" d="M 312.5,439.5 C 312.167,440.167 311.833,440.833 311.5,441.5C 309.167,441.833 307.833,443.167 307.5,445.5C 306.89,446.391 306.557,447.391 306.5,448.5C 306.167,448.5 305.833,448.5 305.5,448.5C 306.092,445.873 306.425,443.206 306.5,440.5C 308.5,440.167 310.5,439.833 312.5,439.5 Z"/></g>
<g><path style="opacity:1" fill="#081917" d="M 189.5,360.5 C 191.344,362.279 192.01,364.612 191.5,367.5C 192.5,367.5 193.5,367.5 194.5,367.5C 194.936,370.364 194.103,372.697 192,374.5C 191.39,400.337 191.556,426.004 192.5,451.5C 192.273,466.378 191.273,481.045 189.5,495.5C 189.5,450.833 189.5,406.167 189.5,361.5C 189.5,361.167 189.5,360.833 189.5,360.5 Z"/></g>
<g><path style="opacity:1" fill="#0f666f" d="M 324.5,441.5 C 325.167,441.5 325.833,441.5 326.5,441.5C 327.6,442.605 328.267,443.938 328.5,445.5C 326.833,444.5 325.5,443.167 324.5,441.5 Z"/></g>
<g><path style="opacity:1" fill="#105d66" d="M 311.5,441.5 C 310.5,443.167 309.167,444.5 307.5,445.5C 307.833,443.167 309.167,441.833 311.5,441.5 Z"/></g>
<g><path style="opacity:1" fill="#21a9ab" d="M 311.5,441.5 C 312.167,441.5 312.833,441.5 313.5,441.5C 313.5,441.833 313.5,442.167 313.5,442.5C 312.167,443.167 311.167,444.167 310.5,445.5C 308.273,446.401 307.273,448.067 307.5,450.5C 307.167,450.5 306.833,450.5 306.5,450.5C 306.5,449.833 306.5,449.167 306.5,448.5C 306.557,447.391 306.89,446.391 307.5,445.5C 309.167,444.5 310.5,443.167 311.5,441.5 Z"/></g>
<g><path style="opacity:1" fill="#061a23" d="M 326.5,441.5 C 330.573,442.587 332.239,445.254 331.5,449.5C 331.167,449.5 330.833,449.5 330.5,449.5C 330.34,447.847 329.674,446.514 328.5,445.5C 328.267,443.938 327.6,442.605 326.5,441.5 Z"/></g>
<g><path style="opacity:1" fill="#0c3a39" d="M 460.5,452.5 C 461.158,448.323 459.492,446.823 455.5,448C 453.65,451.466 454.65,453.299 458.5,453.5C 457.116,454.801 455.616,454.801 454,453.5C 453.503,450.854 453.336,448.187 453.5,445.5C 455.989,445.298 458.323,445.798 460.5,447C 461.807,448.943 461.807,450.777 460.5,452.5 Z"/></g>
<g><path style="opacity:1" fill="#0de0e7" d="M 369.5,398.5 C 369.667,438.168 369.5,477.835 369,517.5C 367.701,517.034 366.201,517.034 364.5,517.5C 364.333,478.165 364.5,438.832 365,399.5C 366.356,398.62 367.856,398.286 369.5,398.5 Z"/></g>
<g><path style="opacity:1" fill="#119696" d="M 166.5,359.5 C 165.51,404.791 165.177,450.124 165.5,495.5C 164.501,450.67 164.168,405.67 164.5,360.5C 165.167,360.167 165.833,359.833 166.5,359.5 Z"/></g>
<g><path style="opacity:1" fill="#34b2ae" d="M 460.5,452.5 C 459.833,452.833 459.167,453.167 458.5,453.5C 454.65,453.299 453.65,451.466 455.5,448C 459.492,446.823 461.158,448.323 460.5,452.5 Z"/></g>
<g><path style="opacity:1" fill="#25bab8" d="M 556.5,447.5 C 556.567,448.959 556.234,450.292 555.5,451.5C 554.128,452.512 552.795,453.512 551.5,454.5C 551.167,454.5 550.833,454.5 550.5,454.5C 550.281,453.325 550.614,452.325 551.5,451.5C 553.227,450.134 554.894,448.8 556.5,447.5 Z"/></g>
<g><path style="opacity:1" fill="#000b10" d="M 362.5,397.5 C 362.5,398.167 362.5,398.833 362.5,399.5C 361.501,438.663 361.168,477.996 361.5,517.5C 361.167,517.5 360.833,517.5 360.5,517.5C 359.839,477.153 360.506,437.153 362.5,397.5 Z"/></g>
<g><path style="opacity:1" fill="#034b4e" d="M 362.5,399.5 C 362.333,438.835 362.5,478.168 363,517.5C 364.865,519.673 367.031,520.007 369.5,518.5C 370.5,478.839 370.833,439.172 370.5,399.5C 371.499,438.663 371.832,477.996 371.5,517.5C 371.5,518.5 371.5,519.5 371.5,520.5C 368.813,520.664 366.146,520.497 363.5,520C 362.619,519.292 361.953,518.458 361.5,517.5C 361.168,477.996 361.501,438.663 362.5,399.5 Z"/></g>
<g><path style="opacity:1" fill="#055453" d="M 555.5,451.5 C 555.306,453.912 553.973,454.912 551.5,454.5C 552.795,453.512 554.128,452.512 555.5,451.5 Z"/></g>
<g><path style="opacity:1" fill="#004143" d="M 537.5,454.5 C 538.609,454.557 539.609,454.89 540.5,455.5C 540.5,455.833 540.5,456.167 540.5,456.5C 538.973,456.573 537.973,455.906 537.5,454.5 Z"/></g>
<g><path style="opacity:1" fill="#157c7d" d="M 550.5,454.5 C 550.833,454.5 551.167,454.5 551.5,454.5C 551.389,455.117 551.056,455.617 550.5,456C 547.183,456.498 543.85,456.665 540.5,456.5C 540.5,456.167 540.5,455.833 540.5,455.5C 543.939,455.747 547.272,455.414 550.5,454.5 Z"/></g>
<g><path style="opacity:1" fill="#06191d" d="M 556.5,447.5 C 556.833,447.5 557.167,447.5 557.5,447.5C 557.896,454.744 554.396,458.411 547,458.5C 544.516,458.503 542.349,457.837 540.5,456.5C 543.85,456.665 547.183,456.498 550.5,456C 551.056,455.617 551.389,455.117 551.5,454.5C 553.973,454.912 555.306,453.912 555.5,451.5C 556.234,450.292 556.567,448.959 556.5,447.5 Z"/></g>
<g><path style="opacity:1" fill="#05232c" d="M 164.5,360.5 C 164.168,405.67 164.501,450.67 165.5,495.5C 165.5,496.167 165.5,496.833 165.5,497.5C 165.5,498.167 165.5,498.833 165.5,499.5C 163.664,498.189 161.664,497.022 159.5,496C 160.967,494.902 161.801,493.402 162,491.5C 161.837,447.489 162.671,403.822 164.5,360.5 Z"/></g>
<g><path style="opacity:1" fill="#04deec" d="M 313.5,442.5 C 314.34,444.786 315.84,445.119 318,443.5C 319.364,444.371 320.53,445.371 321.5,446.5C 320.897,448.679 320.23,450.846 319.5,453C 319.833,453.333 320.167,453.667 320.5,454C 318.82,454.034 317.32,454.201 316,454.5C 315.667,453.833 315.333,453.167 315,452.5C 314.79,455.234 313.956,457.734 312.5,460C 313.167,460.333 313.833,460.667 314.5,461C 313.806,473.497 313.139,486.331 312.5,499.5C 313.496,506.135 314.163,512.801 314.5,519.5C 313.939,537.203 313.272,554.87 312.5,572.5C 314.022,574.156 313.689,575.323 311.5,576C 314.357,580.759 314.191,584.593 311,587.5C 310.353,541.972 309.52,496.472 308.5,451C 308.887,448.739 310.221,447.406 312.5,447C 311.956,446.283 311.289,445.783 310.5,445.5C 311.167,444.167 312.167,443.167 313.5,442.5 Z"/></g>
<g><path style="opacity:1" fill="#1bcdcb" d="M 174.5,355.5 C 176.553,355.402 178.22,356.069 179.5,357.5C 177.473,357.338 175.473,357.505 173.5,358C 173.957,358.414 174.291,358.914 174.5,359.5C 172.535,360.292 170.535,360.959 168.5,361.5C 167.534,363.396 167.201,365.396 167.5,367.5C 166.18,411.027 166.18,454.694 167.5,498.5C 166.833,498.167 166.167,497.833 165.5,497.5C 165.5,496.833 165.5,496.167 165.5,495.5C 165.177,450.124 165.51,404.791 166.5,359.5C 168.965,357.686 171.632,356.353 174.5,355.5 Z"/></g>
<g><path style="opacity:1" fill="#1bdcd8" d="M 256.5,447.5 C 256.5,456.833 256.5,466.167 256.5,475.5C 254.958,476.301 253.292,476.634 251.5,476.5C 250.833,476.5 250.5,476.167 250.5,475.5C 250.5,474.5 250.5,473.5 250.5,472.5C 250.5,471.167 250.5,469.833 250.5,468.5C 253.084,467.952 254.084,466.285 253.5,463.5C 255.144,458.41 256.144,453.077 256.5,447.5 Z"/></g>
<g><path style="opacity:1" fill="#064143" d="M 256.5,475.5 C 256.833,475.5 257.167,475.5 257.5,475.5C 256.866,476.947 255.699,477.613 254,477.5C 252.93,477.472 252.097,477.139 251.5,476.5C 253.292,476.634 254.958,476.301 256.5,475.5 Z"/></g>
<g><path style="opacity:1" fill="#19a7ac" d="M 328.5,445.5 C 329.674,446.514 330.34,447.847 330.5,449.5C 330.832,495.67 330.499,541.67 329.5,587.5C 329.5,544.167 329.5,500.833 329.5,457.5C 329.495,453.466 329.162,449.466 328.5,445.5 Z"/></g>
<g><path style="opacity:1" fill="#0dddd8" d="M 324.5,441.5 C 325.5,443.167 326.833,444.5 328.5,445.5C 329.162,449.466 329.495,453.466 329.5,457.5C 328.833,499.167 328.167,540.833 327.5,582.5C 326.862,558.36 326.195,534.36 325.5,510.5C 325.5,500.167 325.5,489.833 325.5,479.5C 326.658,469.675 326.825,459.675 326,449.5C 324.89,447.11 323.39,446.11 321.5,446.5C 320.53,445.371 319.364,444.371 318,443.5C 315.84,445.119 314.34,444.786 313.5,442.5C 313.5,442.167 313.5,441.833 313.5,441.5C 317.033,440.285 320.699,440.285 324.5,441.5 Z"/></g>
<g><path style="opacity:1" fill="#071b20" d="M 305.5,448.5 C 305.333,495.168 305.5,541.835 306,588.5C 306.949,590.093 308.115,591.426 309.5,592.5C 309.833,593.167 310.167,593.833 310.5,594.5C 307.324,594.33 305.324,592.663 304.5,589.5C 303.333,542.17 303.167,494.837 304,447.5C 304.383,448.056 304.883,448.389 305.5,448.5 Z"/></g>
<g><path style="opacity:1" fill="#105c64" d="M 165.5,497.5 C 166.167,497.833 166.833,498.167 167.5,498.5C 167.833,499.5 168.5,500.167 169.5,500.5C 169.833,501.167 170.167,501.833 170.5,502.5C 169.391,502.443 168.391,502.11 167.5,501.5C 167.167,500.5 166.5,499.833 165.5,499.5C 165.5,498.833 165.5,498.167 165.5,497.5 Z"/></g>
<g><path style="opacity:1" fill="#05545b" d="M 187.5,498.5 C 187.833,498.5 188.167,498.5 188.5,498.5C 187.421,500.543 185.754,501.876 183.5,502.5C 183.5,502.167 183.5,501.833 183.5,501.5C 184.795,500.512 186.128,499.512 187.5,498.5 Z"/></g>
<g><path style="opacity:1" fill="#1c6269" d="M 259.5,500.5 C 257.435,500.517 255.435,500.85 253.5,501.5C 254.134,500.053 255.301,499.387 257,499.5C 258.07,499.528 258.903,499.861 259.5,500.5 Z"/></g>
<g><path style="opacity:1" fill="#20a9ac" d="M 169.5,500.5 C 171.392,501.851 173.558,502.518 176,502.5C 178.498,502.083 180.998,501.749 183.5,501.5C 183.5,501.833 183.5,502.167 183.5,502.5C 179.901,503.344 176.234,503.677 172.5,503.5C 171.833,503.167 171.167,502.833 170.5,502.5C 170.167,501.833 169.833,501.167 169.5,500.5 Z"/></g>
<g><path style="opacity:1" fill="#04e3ee" d="M 325.5,479.5 C 325.5,489.833 325.5,500.167 325.5,510.5C 325.833,532.177 325.5,553.844 324.5,575.5C 323.579,571.376 322.912,567.21 322.5,563C 323.738,541.044 323.738,519.044 322.5,497C 323.209,483.176 323.709,469.343 324,455.5C 324.333,454.833 324.667,454.167 325,453.5C 325.5,462.16 325.666,470.827 325.5,479.5 Z"/></g>
<g><path style="opacity:1" fill="#37c6bf" d="M 259.5,500.5 C 261.3,506.259 259.3,507.926 253.5,505.5C 253.5,504.167 253.5,502.833 253.5,501.5C 255.435,500.85 257.435,500.517 259.5,500.5 Z"/></g>
<g><path style="opacity:1" fill="#041119" d="M 189.5,496.5 C 189.657,497.873 189.49,499.207 189,500.5C 186.597,501.781 184.763,503.614 183.5,506C 179.135,505.542 174.802,505.708 170.5,506.5C 169.048,505.06 168.048,503.394 167.5,501.5C 168.391,502.11 169.391,502.443 170.5,502.5C 171.167,502.833 171.833,503.167 172.5,503.5C 175.64,504.641 178.973,504.808 182.5,504C 183.056,503.617 183.389,503.117 183.5,502.5C 185.754,501.876 187.421,500.543 188.5,498.5C 188.328,497.508 188.662,496.842 189.5,496.5 Z"/></g>
<g><path style="opacity:1" fill="#064b59" d="M 183.5,502.5 C 183.389,503.117 183.056,503.617 182.5,504C 178.973,504.808 175.64,504.641 172.5,503.5C 176.234,503.677 179.901,503.344 183.5,502.5 Z"/></g>
<g><path style="opacity:1" fill="#115f5d" d="M 259.5,500.5 C 260.492,500.328 261.158,500.662 261.5,501.5C 262.247,507.067 259.913,508.9 254.5,507C 253.944,506.617 253.611,506.117 253.5,505.5C 259.3,507.926 261.3,506.259 259.5,500.5 Z"/></g>
<g><path style="opacity:1" fill="#072325" d="M 253.5,501.5 C 253.5,502.833 253.5,504.167 253.5,505.5C 253.611,506.117 253.944,506.617 254.5,507C 259.913,508.9 262.247,507.067 261.5,501.5C 262.622,503.288 262.789,505.288 262,507.5C 259.333,508.167 256.667,508.833 254,509.5C 252.364,506.773 252.198,504.107 253.5,501.5 Z"/></g>
<g><path style="opacity:1" fill="#196666" d="M 418.5,504.5 C 423.027,504.005 424.361,505.672 422.5,509.5C 422.824,506.32 421.49,505.153 418.5,506C 416.839,509.15 417.839,510.65 421.5,510.5C 417.167,512.176 415.5,510.509 416.5,505.5C 417.167,505.167 417.833,504.833 418.5,504.5 Z"/></g>
<g><path style="opacity:1" fill="#050d14" d="M 418.5,504.5 C 420.607,503.532 422.941,503.198 425.5,503.5C 425.949,506.29 425.949,508.956 425.5,511.5C 422.426,513.759 419.259,515.759 416,517.5C 415.188,513.311 415.355,509.311 416.5,505.5C 415.5,510.509 417.167,512.176 421.5,510.5C 422.167,510.5 422.5,510.167 422.5,509.5C 424.361,505.672 423.027,504.005 418.5,504.5 Z"/></g>
<g><path style="opacity:1" fill="#3dc9bb" d="M 422.5,509.5 C 422.5,510.167 422.167,510.5 421.5,510.5C 417.839,510.65 416.839,509.15 418.5,506C 421.49,505.153 422.824,506.32 422.5,509.5 Z"/></g>
<g><path style="opacity:1" fill="#00161c" d="M 441.5,520.5 C 440.839,561.18 441.506,601.514 443.5,641.5C 443.5,642.167 443.5,642.833 443.5,643.5C 442.504,643.586 441.671,643.252 441,642.5C 440.169,601.665 440.335,560.998 441.5,520.5 Z"/></g>
<g><path style="opacity:1" fill="#1cd3d0" d="M 329.5,457.5 C 329.5,500.833 329.5,544.167 329.5,587.5C 328.89,588.391 328.557,589.391 328.5,590.5C 328.5,590.833 328.5,591.167 328.5,591.5C 326.147,592.34 324.147,593.674 322.5,595.5C 322.167,595.5 321.833,595.5 321.5,595.5C 317.139,595.709 313.139,594.709 309.5,592.5C 309.5,592.167 309.5,591.833 309.5,591.5C 312.759,592.664 316.093,593.664 319.5,594.5C 319.5,593.5 319.5,592.5 319.5,591.5C 321.167,591.5 322.833,591.5 324.5,591.5C 326.274,588.882 327.274,585.882 327.5,582.5C 328.167,540.833 328.833,499.167 329.5,457.5 Z"/></g>
<g><path style="opacity:1" fill="#12837d" d="M 305.5,448.5 C 305.833,448.5 306.167,448.5 306.5,448.5C 306.5,449.167 306.5,449.833 306.5,450.5C 306.5,495.167 306.5,539.833 306.5,584.5C 307.011,587.022 308.011,589.355 309.5,591.5C 309.5,591.833 309.5,592.167 309.5,592.5C 308.115,591.426 306.949,590.093 306,588.5C 305.5,541.835 305.333,495.168 305.5,448.5 Z"/></g>
<g><path style="opacity:1" fill="#10d2c8" d="M 306.5,450.5 C 306.833,450.5 307.167,450.5 307.5,450.5C 308.641,495.482 308.807,540.482 308,585.5C 307.617,584.944 307.117,584.611 306.5,584.5C 306.5,539.833 306.5,495.167 306.5,450.5 Z"/></g>
<g><path style="opacity:1" fill="#0ce4e6" d="M 453.5,517.5 C 453.833,517.5 454.167,517.5 454.5,517.5C 454.218,518.778 453.551,519.778 452.5,520.5C 450.777,521.807 448.943,521.807 447,520.5C 446.667,521.833 446.333,523.167 446,524.5C 446.219,544.177 446.053,563.843 445.5,583.5C 445.472,594.41 446.138,605.243 447.5,616C 447.26,623.176 446.926,630.342 446.5,637.5C 445.662,637.842 445.328,638.508 445.5,639.5C 444.833,639.5 444.167,639.5 443.5,639.5C 443.333,600.165 443.5,560.832 444,521.5C 446.239,518.038 449.406,516.705 453.5,517.5 Z"/></g>
<g><path style="opacity:1" fill="#005357" d="M 330.5,449.5 C 330.833,449.5 331.167,449.5 331.5,449.5C 331.667,495.835 331.5,542.168 331,588.5C 330.292,589.381 329.458,590.047 328.5,590.5C 328.557,589.391 328.89,588.391 329.5,587.5C 330.499,541.67 330.832,495.67 330.5,449.5 Z"/></g>
<g><path style="opacity:1" fill="#2e8680" d="M 492.5,545.5 C 493.209,544.596 494.209,544.263 495.5,544.5C 496.947,545.134 497.613,546.301 497.5,548C 497.472,549.07 497.139,549.903 496.5,550.5C 494.901,550.768 493.568,550.434 492.5,549.5C 493.833,549.5 495.167,549.5 496.5,549.5C 496.833,546.5 495.5,545.167 492.5,545.5 Z"/></g>
<g><path style="opacity:1" fill="#0b4845" d="M 495.5,544.5 C 494.209,544.263 493.209,544.596 492.5,545.5C 491.167,546.833 491.167,548.167 492.5,549.5C 493.568,550.434 494.901,550.768 496.5,550.5C 490.997,552.494 489.164,550.494 491,544.5C 492.616,543.199 494.116,543.199 495.5,544.5 Z"/></g>
<g><path style="opacity:1" fill="#42c6bd" d="M 492.5,545.5 C 495.5,545.167 496.833,546.5 496.5,549.5C 495.167,549.5 493.833,549.5 492.5,549.5C 491.167,548.167 491.167,546.833 492.5,545.5 Z"/></g>
<g><path style="opacity:1" fill="#02e1e6" d="M 310.5,445.5 C 311.289,445.783 311.956,446.283 312.5,447C 310.221,447.406 308.887,448.739 308.5,451C 309.52,496.472 310.353,541.972 311,587.5C 314.191,584.593 314.357,580.759 311.5,576C 313.689,575.323 314.022,574.156 312.5,572.5C 313.272,554.87 313.939,537.203 314.5,519.5C 314.163,512.801 313.496,506.135 312.5,499.5C 313.139,486.331 313.806,473.497 314.5,461C 313.833,460.667 313.167,460.333 312.5,460C 313.956,457.734 314.79,455.234 315,452.5C 315.333,453.167 315.667,453.833 316,454.5C 317.32,454.201 318.82,454.034 320.5,454C 320.167,453.667 319.833,453.333 319.5,453C 320.23,450.846 320.897,448.679 321.5,446.5C 323.39,446.11 324.89,447.11 326,449.5C 326.825,459.675 326.658,469.675 325.5,479.5C 325.666,470.827 325.5,462.16 325,453.5C 324.667,454.167 324.333,454.833 324,455.5C 323.709,469.343 323.209,483.176 322.5,497C 323.738,519.044 323.738,541.044 322.5,563C 322.912,567.21 323.579,571.376 324.5,575.5C 325.5,553.844 325.833,532.177 325.5,510.5C 326.195,534.36 326.862,558.36 327.5,582.5C 327.274,585.882 326.274,588.882 324.5,591.5C 322.833,591.5 321.167,591.5 319.5,591.5C 319.5,592.5 319.5,593.5 319.5,594.5C 316.093,593.664 312.759,592.664 309.5,591.5C 308.011,589.355 307.011,587.022 306.5,584.5C 307.117,584.611 307.617,584.944 308,585.5C 308.807,540.482 308.641,495.482 307.5,450.5C 307.273,448.067 308.273,446.401 310.5,445.5 Z"/></g>
<g><path style="opacity:1" fill="#14a3ac" d="M 454.5,517.5 C 455.794,518.29 456.961,519.29 458,520.5C 458.5,560.165 458.667,599.832 458.5,639.5C 458.167,639.5 457.833,639.5 457.5,639.5C 457.5,604.833 457.5,570.167 457.5,535.5C 457.5,532.167 457.5,528.833 457.5,525.5C 458.167,521.5 456.5,519.833 452.5,520.5C 453.551,519.778 454.218,518.778 454.5,517.5 Z"/></g>
<g><path style="opacity:1" fill="#0b3b3f" d="M 169.5,551.5 C 165.5,550.833 163.833,552.5 164.5,556.5C 162.5,551.167 164.167,549.5 169.5,551.5 Z"/></g>
<g><path style="opacity:1" fill="#33afa8" d="M 169.5,551.5 C 169.833,552.167 170.167,552.833 170.5,553.5C 170.116,557.444 168.116,558.444 164.5,556.5C 163.833,552.5 165.5,550.833 169.5,551.5 Z"/></g>
<g><path style="opacity:1" fill="#094642" d="M 170.5,553.5 C 172.275,556.657 171.275,558.324 167.5,558.5C 165.97,558.36 164.97,557.693 164.5,556.5C 168.116,558.444 170.116,557.444 170.5,553.5 Z"/></g>
<g><path style="opacity:1" fill="#005059" d="M 453.5,517.5 C 453.5,517.167 453.5,516.833 453.5,516.5C 458.072,517.087 460.072,519.754 459.5,524.5C 459.832,563.004 459.499,601.337 458.5,639.5C 458.667,599.832 458.5,560.165 458,520.5C 456.961,519.29 455.794,518.29 454.5,517.5C 454.167,517.5 453.833,517.5 453.5,517.5 Z"/></g>
<g><path style="opacity:1" fill="#01e1e1" d="M 457.5,525.5 C 457.5,528.833 457.5,532.167 457.5,535.5C 455.955,534.77 455.122,533.437 455,531.5C 454.319,533.895 453.485,536.228 452.5,538.5C 451.449,560.329 451.449,582.162 452.5,604C 452.444,614.855 451.944,625.688 451,636.5C 449.509,606.981 449.009,577.314 449.5,547.5C 449.932,539.819 450.599,532.152 451.5,524.5C 453.409,525.348 455.409,525.682 457.5,525.5 Z"/></g>
<g><path style="opacity:1" fill="#248b8c" d="M 225.5,573.5 C 226.167,574.167 226.833,574.833 227.5,575.5C 224.287,575.19 221.287,575.523 218.5,576.5C 217.5,577.167 216.5,577.833 215.5,578.5C 215.511,576.983 216.177,575.816 217.5,575C 220.063,573.921 222.729,573.421 225.5,573.5 Z"/></g>
<g><path style="opacity:1" fill="#00171c" d="M 459.5,524.5 C 460.665,563.331 460.831,602.331 460,641.5C 459.583,642.756 458.75,643.423 457.5,643.5C 458.234,642.292 458.567,640.959 458.5,639.5C 459.499,601.337 459.832,563.004 459.5,524.5 Z"/></g>
<g><path style="opacity:1" fill="#0bdbe7" d="M 457.5,535.5 C 457.5,570.167 457.5,604.833 457.5,639.5C 456.2,640.108 454.867,640.775 453.5,641.5C 451.723,640.397 449.889,640.397 448,641.5C 446.624,641.316 445.791,640.649 445.5,639.5C 445.328,638.508 445.662,637.842 446.5,637.5C 447.053,640.632 448.053,640.966 449.5,638.5C 448.178,608.02 448.178,577.687 449.5,547.5C 449.009,577.314 449.509,606.981 451,636.5C 451.944,625.688 452.444,614.855 452.5,604C 451.449,582.162 451.449,560.329 452.5,538.5C 453.485,536.228 454.319,533.895 455,531.5C 455.122,533.437 455.955,534.77 457.5,535.5 Z"/></g>
<g><path style="opacity:1" fill="#147773" d="M 309.5,592.5 C 313.139,594.709 317.139,595.709 321.5,595.5C 319.735,596.461 317.735,596.795 315.5,596.5C 313.716,596.107 312.05,595.441 310.5,594.5C 310.167,593.833 309.833,593.167 309.5,592.5 Z"/></g>
<g><path style="opacity:1" fill="#0e6f6c" d="M 328.5,591.5 C 327.421,593.543 325.754,594.876 323.5,595.5C 323.167,595.5 322.833,595.5 322.5,595.5C 324.147,593.674 326.147,592.34 328.5,591.5 Z"/></g>
<g><path style="opacity:1" fill="#002d28" d="M 321.5,595.5 C 321.833,595.5 322.167,595.5 322.5,595.5C 322.833,595.5 323.167,595.5 323.5,595.5C 322.508,597.026 321.008,597.693 319,597.5C 317.615,597.486 316.449,597.152 315.5,596.5C 317.735,596.795 319.735,596.461 321.5,595.5 Z"/></g>
<g><path style="opacity:1" fill="#096667" d="M 453.5,516.5 C 449.091,515.618 445.591,516.952 443,520.5C 442.169,560.335 442.335,600.002 443.5,639.5C 443.5,640.167 443.5,640.833 443.5,641.5C 441.506,601.514 440.839,561.18 441.5,520.5C 444.386,515.647 448.386,514.314 453.5,516.5 Z"/></g>
<g><path style="opacity:1" fill="#05272e" d="M 225.5,573.5 C 230.691,573.005 233.191,575.338 233,580.5C 233.667,617.833 233.667,655.167 233,692.5C 232.228,693.849 231.061,694.682 229.5,695C 225.973,695.808 222.64,695.641 219.5,694.5C 221.5,694.5 223.5,694.5 225.5,694.5C 229.167,694.167 231.167,692.167 231.5,688.5C 231.667,651.832 231.5,615.165 231,578.5C 230.764,576.881 229.931,575.881 228.5,575.5C 228.167,575.5 227.833,575.5 227.5,575.5C 226.833,574.833 226.167,574.167 225.5,573.5 Z"/></g>
<g><path style="opacity:1" fill="#21c0bc" d="M 453.5,516.5 C 453.5,516.833 453.5,517.167 453.5,517.5C 449.406,516.705 446.239,518.038 444,521.5C 443.5,560.832 443.333,600.165 443.5,639.5C 442.335,600.002 442.169,560.335 443,520.5C 445.591,516.952 449.091,515.618 453.5,516.5 Z"/></g>
<g><path style="opacity:1" fill="#04e3f1" d="M 452.5,520.5 C 456.5,519.833 458.167,521.5 457.5,525.5C 455.409,525.682 453.409,525.348 451.5,524.5C 450.599,532.152 449.932,539.819 449.5,547.5C 448.178,577.687 448.178,608.02 449.5,638.5C 448.053,640.966 447.053,640.632 446.5,637.5C 446.926,630.342 447.26,623.176 447.5,616C 446.138,605.243 445.472,594.41 445.5,583.5C 446.053,563.843 446.219,544.177 446,524.5C 446.333,523.167 446.667,521.833 447,520.5C 448.943,521.807 450.777,521.807 452.5,520.5 Z"/></g>
<g><path style="opacity:1" fill="#129c9d" d="M 228.5,575.5 C 229.931,575.881 230.764,576.881 231,578.5C 231.5,615.165 231.667,651.832 231.5,688.5C 231.167,688.5 230.833,688.5 230.5,688.5C 230.667,652.165 230.5,615.832 230,579.5C 229.209,578.255 228.709,576.922 228.5,575.5 Z"/></g>
<g><path style="opacity:1" fill="#081b21" d="M 225.5,573.5 C 222.729,573.421 220.063,573.921 217.5,575C 216.177,575.816 215.511,576.983 215.5,578.5C 214.502,614.663 214.168,650.996 214.5,687.5C 214.253,689.858 214.919,691.858 216.5,693.5C 215.178,693.67 214.011,693.337 213,692.5C 212.811,655.986 212.311,619.486 211.5,583C 212.46,576.522 216.127,573.022 222.5,572.5C 223.726,572.52 224.726,572.853 225.5,573.5 Z"/></g>
<g><path style="opacity:1" fill="#12d4d2" d="M 227.5,575.5 C 227.833,575.5 228.167,575.5 228.5,575.5C 228.709,576.922 229.209,578.255 230,579.5C 230.5,615.832 230.667,652.165 230.5,688.5C 229.833,691.167 228.167,692.833 225.5,693.5C 222.549,693.713 219.882,693.046 217.5,691.5C 216.346,654.208 216.179,616.875 217,579.5C 217.383,578.944 217.883,578.611 218.5,578.5C 218.5,581.5 218.5,584.5 218.5,587.5C 217.17,620.669 217.17,654.002 218.5,687.5C 221.736,691.309 224.736,691.309 227.5,687.5C 228.833,670.346 229.5,652.846 229.5,635C 229.333,617.5 229.167,600 229,582.5C 228.691,581.234 228.191,580.067 227.5,579C 224.568,578.047 221.568,577.547 218.5,577.5C 218.5,577.167 218.5,576.833 218.5,576.5C 221.287,575.523 224.287,575.19 227.5,575.5 Z"/></g>
<g><path style="opacity:1" fill="#03dfe6" d="M 218.5,587.5 C 218.953,588.458 219.619,589.292 220.5,590C 220.697,597.045 220.697,604.212 220.5,611.5C 221.533,615.632 222.533,619.632 223.5,623.5C 223.5,628.833 223.5,634.167 223.5,639.5C 222.5,639.5 221.5,639.5 220.5,639.5C 221.813,649.999 221.813,660.666 220.5,671.5C 221.833,671.5 223.167,671.5 224.5,671.5C 225.364,676.734 225.364,682.067 224.5,687.5C 225.5,687.5 226.5,687.5 227.5,687.5C 224.736,691.309 221.736,691.309 218.5,687.5C 217.17,654.002 217.17,620.669 218.5,587.5 Z"/></g>
<g><path style="opacity:1" fill="#23c4c5" d="M 443.5,639.5 C 444.167,639.5 444.833,639.5 445.5,639.5C 445.791,640.649 446.624,641.316 448,641.5C 449.889,640.397 451.723,640.397 453.5,641.5C 454.867,640.775 456.2,640.108 457.5,639.5C 456.7,641.573 455.367,643.24 453.5,644.5C 451.5,644.5 449.5,644.5 447.5,644.5C 446.205,643.512 444.872,642.512 443.5,641.5C 443.5,640.833 443.5,640.167 443.5,639.5 Z"/></g>
<g><path style="opacity:1" fill="#0b6568" d="M 443.5,641.5 C 444.872,642.512 446.205,643.512 447.5,644.5C 446.833,644.5 446.167,644.5 445.5,644.5C 444.833,644.167 444.167,643.833 443.5,643.5C 443.5,642.833 443.5,642.167 443.5,641.5 Z"/></g>
<g><path style="opacity:1" fill="#0a5258" d="M 457.5,639.5 C 457.833,639.5 458.167,639.5 458.5,639.5C 458.567,640.959 458.234,642.292 457.5,643.5C 457.167,643.5 456.833,643.5 456.5,643.5C 455.609,644.11 454.609,644.443 453.5,644.5C 455.367,643.24 456.7,641.573 457.5,639.5 Z"/></g>
<g><path style="opacity:1" fill="#15adaa" d="M 218.5,576.5 C 218.5,576.833 218.5,577.167 218.5,577.5C 218.5,577.833 218.5,578.167 218.5,578.5C 217.883,578.611 217.383,578.944 217,579.5C 216.179,616.875 216.346,654.208 217.5,691.5C 216.143,690.41 215.143,689.076 214.5,687.5C 214.168,650.996 214.502,614.663 215.5,578.5C 216.5,577.833 217.5,577.167 218.5,576.5 Z"/></g>
<g><path style="opacity:1" fill="#03322f" d="M 456.5,643.5 C 456.423,644.75 455.756,645.583 454.5,646C 453,646.167 451.5,646.333 450,646.5C 448.014,646.431 446.514,645.765 445.5,644.5C 446.167,644.5 446.833,644.5 447.5,644.5C 449.5,644.5 451.5,644.5 453.5,644.5C 454.609,644.443 455.609,644.11 456.5,643.5 Z"/></g>
<g><path style="opacity:1" fill="#04e1e5" d="M 218.5,577.5 C 221.568,577.547 224.568,578.047 227.5,579C 228.191,580.067 228.691,581.234 229,582.5C 229.167,600 229.333,617.5 229.5,635C 229.5,652.846 228.833,670.346 227.5,687.5C 225.238,658.708 224.905,629.874 226.5,601C 226.167,597.833 225.833,594.667 225.5,591.5C 225.167,593.833 224.833,596.167 224.5,598.5C 223.622,607.027 223.289,615.36 223.5,623.5C 222.533,619.632 221.533,615.632 220.5,611.5C 220.697,604.212 220.697,597.045 220.5,590C 219.619,589.292 218.953,588.458 218.5,587.5C 218.5,584.5 218.5,581.5 218.5,578.5C 218.5,578.167 218.5,577.833 218.5,577.5 Z"/></g>
<g><path style="opacity:1" fill="#03e7e6" d="M 227.5,687.5 C 226.5,687.5 225.5,687.5 224.5,687.5C 225.364,682.067 225.364,676.734 224.5,671.5C 223.167,671.5 221.833,671.5 220.5,671.5C 221.813,660.666 221.813,649.999 220.5,639.5C 221.5,639.5 222.5,639.5 223.5,639.5C 223.5,634.167 223.5,628.833 223.5,623.5C 223.289,615.36 223.622,607.027 224.5,598.5C 224.833,596.167 225.167,593.833 225.5,591.5C 225.833,594.667 226.167,597.833 226.5,601C 224.905,629.874 225.238,658.708 227.5,687.5 Z"/></g>
<g><path style="opacity:1" fill="#044a4b" d="M 214.5,687.5 C 215.143,689.076 216.143,690.41 217.5,691.5C 218.167,692.5 218.833,693.5 219.5,694.5C 218.391,694.443 217.391,694.11 216.5,693.5C 214.919,691.858 214.253,689.858 214.5,687.5 Z"/></g>
<g><path style="opacity:1" fill="#086163" d="M 230.5,688.5 C 230.833,688.5 231.167,688.5 231.5,688.5C 231.167,692.167 229.167,694.167 225.5,694.5C 225.5,694.167 225.5,693.833 225.5,693.5C 228.167,692.833 229.833,691.167 230.5,688.5 Z"/></g>
<g><path style="opacity:1" fill="#1da2a2" d="M 217.5,691.5 C 219.882,693.046 222.549,693.713 225.5,693.5C 225.5,693.833 225.5,694.167 225.5,694.5C 223.5,694.5 221.5,694.5 219.5,694.5C 218.833,693.5 218.167,692.5 217.5,691.5 Z"/></g>
</svg>
